<svg width="200" height="200" viewBox="0 0 200 200" fill="none" xmlns="http://www.w3.org/2000/svg">
<path d="M135.706 30.8628C147.458 30.8628 156.794 31.9074 163.714 33.9965C170.765 35.955 175.857 39.4804 178.991 44.5727C182.124 49.665 183.691 56.8463 183.691 66.1169C183.691 75.7791 181.798 83.1563 178.011 88.2486C174.355 93.2102 168.284 96.0828 159.797 96.8662V98.0414C170.242 98.9554 177.554 102.481 181.733 108.618C185.911 114.624 188 123.046 188 133.883C188 143.154 186.368 150.335 183.104 155.427C179.97 160.519 175.008 164.11 168.219 166.199C161.559 168.158 152.811 169.137 141.974 169.137C133.226 169.137 125.587 169.072 119.059 168.941C112.661 168.941 106.72 168.811 101.236 168.549C95.7519 168.288 90.1373 167.962 84.3922 167.57L87.3301 146.809C90.4638 146.94 96.47 147.071 105.349 147.201C114.358 147.332 124.804 147.397 136.686 147.397C142.17 147.397 146.479 146.875 149.612 145.83C152.746 144.786 154.9 142.892 156.076 140.15C157.381 137.278 158.034 133.23 158.034 128.007C158.034 122.393 157.381 118.149 156.076 115.277C154.77 112.274 152.485 110.184 149.221 109.009C146.087 107.834 141.713 107.181 136.098 107.051H87.1342V88.0527H135.706C140.538 87.9221 144.324 87.3999 147.066 86.4859C149.939 85.5719 151.963 83.8092 153.138 81.1978C154.313 78.5863 154.9 74.9304 154.9 70.2298C154.9 65.3987 154.248 61.7427 152.942 59.2619C151.767 56.6505 149.678 54.8878 146.674 53.9738C143.671 53.0598 139.493 52.6028 134.14 52.6028C126.828 52.6028 120.364 52.6028 114.75 52.6028C109.135 52.6028 104.108 52.6681 99.669 52.7986C95.2296 52.7986 91.1166 52.9292 87.3301 53.1904L84.3922 32.4296C89.6151 31.9074 94.642 31.5809 99.4731 31.4504C104.435 31.1892 109.788 31.0586 115.533 31.0586C121.278 30.9281 128.003 30.8628 135.706 30.8628ZM113.771 32.4296V167.57H84.3922V32.4296H113.771Z" fill="#792056"/>
<path d="M40.7908 31.8421C48.1028 31.8421 55.48 31.9074 62.9225 32.0379C70.3651 32.0379 77.677 32.1685 84.8584 32.4296C92.0398 32.6908 98.7642 33.1478 105.032 33.8006L103.661 55.5406H51.7587C48.4945 55.5406 46.0136 56.3893 44.3162 58.0868C42.7494 59.7842 41.9659 62.265 41.9659 65.5293V134.471C41.9659 137.735 42.7494 140.216 44.3162 141.913C46.0136 143.61 48.4945 144.459 51.7587 144.459H103.661L105.032 166.199C98.7642 166.721 92.0398 167.178 84.8584 167.57C77.677 167.831 70.3651 167.962 62.9225 167.962C55.48 168.092 48.1028 168.158 40.7908 168.158C32.1732 168.158 25.1876 165.677 19.8342 160.715C14.6114 155.623 12 149.029 12 140.934V59.066C12 50.8401 14.6114 44.2463 19.8342 39.2846C25.1876 34.3229 32.1732 31.8421 40.7908 31.8421ZM15.5254 86.6817H96.4139V107.834H15.5254V86.6817Z" fill="#792056"/>
</svg>
